<svg xmlns="http://www.w3.org/2000/svg" xmlns:xlink="http://www.w3.org/1999/xlink" width="500" zoomAndPan="magnify" viewBox="0 0 375 374.999991" height="500" preserveAspectRatio="xMidYMid meet" version="1.0"><defs><g/><clipPath id="94ae2cf37f"><path d="M 49.082031 68 L 168 68 L 168 250 L 49.082031 250 Z M 49.082031 68 " clip-rule="nonzero"/></clipPath><clipPath id="1f876f25d7"><path d="M 180 147 L 184 147 L 184 250.089844 L 180 250.089844 Z M 180 147 " clip-rule="nonzero"/></clipPath><clipPath id="818bdf0938"><path d="M 186 151 L 192 151 L 192 250.089844 L 186 250.089844 Z M 186 151 " clip-rule="nonzero"/></clipPath><clipPath id="abec8e12cd"><path d="M 158 15.339844 L 247 15.339844 L 247 250 L 158 250 Z M 158 15.339844 " clip-rule="nonzero"/></clipPath></defs><path fill="#ffffff" d="M 99.285156 167.640625 L 116.65625 177.046875 L 116.292969 179.894531 L 99.285156 171.121094 Z M 99.285156 167.640625 " fill-opacity="1" fill-rule="nonzero"/><path fill="#ffffff" d="M 100.949219 176.109375 L 113.433594 183.957031 L 113.433594 186.964844 L 100.949219 179.894531 Z M 100.949219 176.109375 " fill-opacity="1" fill-rule="nonzero"/><g clip-path="url(#94ae2cf37f)"><path fill="#ffffff" d="M 98.140625 162.34375 L 123.269531 174.332031 C 127.339844 201.421875 134.816406 225.441406 146.042969 246.082031 C 153.070312 248.035156 160.21875 249.109375 167.472656 249.199219 C 157.070312 206.292969 154.722656 162.390625 155.199219 118.398438 L 151.246094 120.375 L 152.703125 68.535156 L 132.9375 80.378906 L 131.898438 130.035156 L 119.828125 136.164062 C 120.132812 144.449219 120.6875 152.503906 121.5 160.328125 L 90.390625 145.410156 C 74.507812 150.75 59.75 151.117188 49.09375 147.488281 C 53.449219 170.234375 59.640625 188.109375 67.328125 202.011719 C 71.273438 209.152344 76.84375 215.269531 83.535156 219.941406 C 95.902344 228.570312 109.046875 235.699219 123.367188 240.574219 C 105.082031 212.777344 94.003906 182.238281 90.703125 148.738281 L 121.804688 163.488281 L 121.804688 163.164062 C 122.125 166.011719 122.484375 168.828125 122.875 171.613281 L 98.140625 158.867188 L 98.140625 162.347656 Z M 98.140625 162.34375 " fill-opacity="1" fill-rule="nonzero"/></g><path fill="#ffffff" d="M 162.167969 138.34375 L 165.183594 140.316406 C 166.398438 175.714844 168.984375 212.164062 172.882812 249.609375 L 171.53125 249.609375 C 167.066406 217.039062 164.183594 179.160156 162.167969 138.34375 Z M 162.167969 138.34375 " fill-opacity="1" fill-rule="nonzero"/><path fill="#ffffff" d="M 171.632812 142.8125 L 175.171875 145.304688 C 175.851562 183.996094 176.835938 219.929688 178.5 249.714844 L 177.25 249.609375 C 175.304688 219.738281 173.453125 182.671875 171.632812 142.8125 Z M 171.632812 142.8125 " fill-opacity="1" fill-rule="nonzero"/><g clip-path="url(#1f876f25d7)"><path fill="#ffffff" d="M 180.035156 147.800781 L 183.9375 149.746094 L 183.546875 250.027344 L 182.21875 250.027344 C 182.171875 212.675781 181.558594 178.046875 180.035156 147.800781 Z M 180.035156 147.800781 " fill-opacity="1" fill-rule="nonzero"/></g><g clip-path="url(#818bdf0938)"><path fill="#ffffff" d="M 187.828125 151.765625 L 191.027344 154.261719 L 187.671875 250.097656 L 186.035156 250.097656 C 187.816406 220.234375 188.226562 186.996094 187.828125 151.765625 Z M 187.828125 151.765625 " fill-opacity="1" fill-rule="nonzero"/></g><g clip-path="url(#abec8e12cd)"><path fill="#ffffff" d="M 223.972656 146.054688 L 224.894531 122.941406 L 203.125 102.996094 L 193.21875 108.296875 L 192.515625 53.910156 L 186.585938 47.519531 L 186.117188 32.171875 L 174.804688 15.339844 L 165.910156 21.730469 L 164.664062 38.792969 L 160.136719 42.066406 L 158.109375 70.972656 L 167.003906 78.066406 L 167.003906 124.582031 L 174.179688 128.945312 L 175.664062 30.300781 L 174.570312 31.703125 L 173.324219 31.625 L 173.945312 18.613281 L 185.027344 35.757812 L 184.871094 50.25 L 189.707031 55 L 190.253906 136.660156 L 202.96875 143.203125 L 203.4375 108.140625 L 221.695312 124.660156 L 221.230469 146.941406 C 213.515625 149.410156 205.289062 151.839844 196.703125 154.242188 C 197.015625 187.21875 195.03125 219.089844 190.460938 249.71875 C 200.949219 249.65625 211.128906 248.695312 220.734375 246.082031 C 237.589844 212.371094 245.09375 175.898438 246.84375 137.722656 C 240.011719 140.5625 232.3125 143.332031 223.972656 146.058594 Z M 223.972656 146.054688 " fill-opacity="1" fill-rule="nonzero"/></g><path fill="#ffffff" d="M 252.515625 153.410156 L 255.558594 155.125 C 252.074219 192.289062 241.453125 220.839844 227.238281 245.039062 L 225.445312 244.730469 C 240.703125 216.515625 249.757812 186.089844 252.519531 153.410156 Z M 252.515625 153.410156 " fill-opacity="1" fill-rule="nonzero"/><path fill="#ffffff" d="M 261.304688 158.03125 L 263.957031 159.746094 C 260.582031 189.855469 250.488281 217.648438 234.101562 243.273438 L 232.695312 242.441406 C 255.589844 204.402344 257.9375 181.59375 261.300781 158.03125 Z M 261.304688 158.03125 " fill-opacity="1" fill-rule="nonzero"/><path fill="#ffffff" d="M 269.308594 161.921875 L 271.960938 163.425781 C 267.480469 192.09375 257.167969 217.949219 241.328125 241.136719 L 239.351562 240.667969 C 254.441406 217.945312 265.777344 192.632812 269.308594 161.921875 Z M 269.308594 161.921875 " fill-opacity="1" fill-rule="nonzero"/><path fill="#ffffff" d="M 276.066406 165.089844 L 278.617188 166.128906 C 273.792969 192.777344 263.40625 217.179688 247.304688 239.265625 L 245.277344 238.796875 C 260.046875 219.996094 272.148438 191.316406 276.066406 165.089844 Z M 276.066406 165.089844 " fill-opacity="1" fill-rule="nonzero"/><path fill="#ffffff" d="M 281.636719 167.128906 L 283.613281 168.324219 C 278.515625 192.0625 267.957031 216.996094 252.71875 236.996094 L 251.625 236.996094 C 265.902344 217.882812 275.902344 194.589844 281.636719 167.128906 Z M 281.636719 167.128906 " fill-opacity="1" fill-rule="nonzero"/><path fill="#ffffff" d="M 286.835938 168.316406 L 288.710938 169.617188 C 283.011719 194.378906 272.722656 215.636719 258.804688 234.132812 L 257.292969 234.027344 C 270.742188 216.683594 280.507812 194.675781 286.835938 168.316406 Z M 286.835938 168.316406 " fill-opacity="1" fill-rule="nonzero"/><path fill="#ffffff" d="M 263.742188 231.015625 L 266.707031 230.234375 C 281.085938 212.761719 290.566406 187.832031 297.445312 158.941406 L 286.523438 156.058594 C 291.09375 132.21875 291.292969 107.144531 287.226562 80.867188 C 297.019531 95.382812 306.777344 108.457031 316.484375 119.28125 C 316.691406 156.238281 305.371094 187.984375 287.460938 216.753906 L 292.21875 213.171875 C 310.027344 184.277344 320.574219 153.046875 319.605469 118.113281 C 310.242188 107.851562 299.136719 93.386719 287.382812 77.363281 C 277.160156 77.636719 267.046875 79.683594 257.03125 83.4375 C 259.207031 104.582031 259.394531 125.074219 257.578125 144.914062 C 270.082031 152.753906 282.183594 158.679688 293.625 161.511719 C 288.621094 187.5625 277.980469 210.332031 263.742188 231.011719 Z M 263.742188 231.015625 " fill-opacity="1" fill-rule="nonzero"/><path fill="#ffffff" d="M 295.316406 99.957031 L 312.796875 121.148438 L 312.796875 123.539062 L 295.316406 103.542969 Z M 295.316406 99.957031 " fill-opacity="1" fill-rule="nonzero"/><path fill="#ffffff" d="M 295.945312 112.578125 L 310.242188 128.265625 L 310.242188 130.65625 L 295.945312 115.695312 Z M 295.945312 112.578125 " fill-opacity="1" fill-rule="nonzero"/><path fill="#ffffff" d="M 295.945312 125.046875 L 304.054688 133.148438 L 304.054688 135.070312 L 295.945312 128.734375 Z M 295.945312 125.046875 " fill-opacity="1" fill-rule="nonzero"/><path fill="#ffffff" d="M 295.316406 134.398438 L 297.710938 137.722656 L 297.710938 140.007812 L 295.316406 137.617188 Z M 295.316406 134.398438 " fill-opacity="1" fill-rule="nonzero"/><g fill="#ffffff" fill-opacity="1"><g transform="translate(105.00264, 355.154507)"><g><path d="M 1.78125 0 L 1.78125 -12.90625 L 3.28125 -12.90625 L 3.28125 0 Z M 1.78125 0 "/></g></g></g><g fill="#ffffff" fill-opacity="1"><g transform="translate(119.264811, 355.154507)"><g><path d="M 11.859375 0 L 10.140625 0 L 3.09375 -10.828125 L 3.015625 -10.828125 C 3.109375 -9.554688 3.15625 -8.390625 3.15625 -7.328125 L 3.15625 0 L 1.78125 0 L 1.78125 -12.90625 L 3.46875 -12.90625 L 10.5 -2.125 L 10.578125 -2.125 C 10.566406 -2.28125 10.539062 -2.785156 10.5 -3.640625 C 10.457031 -4.503906 10.441406 -5.125 10.453125 -5.5 L 10.453125 -12.90625 L 11.859375 -12.90625 Z M 11.859375 0 "/></g></g></g><g fill="#ffffff" fill-opacity="1"><g transform="translate(142.114717, 355.154507)"><g><path d="M 9.140625 -12.90625 L 10.765625 -12.90625 L 6.109375 0 L 4.625 0 L 0 -12.90625 L 1.59375 -12.90625 L 4.5625 -4.5625 C 4.894531 -3.59375 5.160156 -2.65625 5.359375 -1.75 C 5.578125 -2.707031 5.859375 -3.660156 6.203125 -4.609375 Z M 9.140625 -12.90625 "/></g></g></g><g fill="#ffffff" fill-opacity="1"><g transform="translate(162.096167, 355.154507)"><g><path d="M 8.96875 0 L 1.78125 0 L 1.78125 -12.90625 L 8.96875 -12.90625 L 8.96875 -11.578125 L 3.28125 -11.578125 L 3.28125 -7.421875 L 8.625 -7.421875 L 8.625 -6.09375 L 3.28125 -6.09375 L 3.28125 -1.34375 L 8.96875 -1.34375 Z M 8.96875 0 "/></g></g></g><g fill="#ffffff" fill-opacity="1"><g transform="translate(181.371533, 355.154507)"><g><path d="M 9.0625 -3.4375 C 9.0625 -2.300781 8.644531 -1.414062 7.8125 -0.78125 C 6.988281 -0.144531 5.875 0.171875 4.46875 0.171875 C 2.9375 0.171875 1.757812 -0.0234375 0.9375 -0.421875 L 0.9375 -1.859375 C 1.46875 -1.640625 2.039062 -1.460938 2.65625 -1.328125 C 3.28125 -1.203125 3.898438 -1.140625 4.515625 -1.140625 C 5.515625 -1.140625 6.265625 -1.328125 6.765625 -1.703125 C 7.273438 -2.085938 7.53125 -2.617188 7.53125 -3.296875 C 7.53125 -3.742188 7.441406 -4.109375 7.265625 -4.390625 C 7.085938 -4.671875 6.785156 -4.929688 6.359375 -5.171875 C 5.941406 -5.421875 5.304688 -5.695312 4.453125 -6 C 3.242188 -6.425781 2.382812 -6.929688 1.875 -7.515625 C 1.363281 -8.109375 1.109375 -8.878906 1.109375 -9.828125 C 1.109375 -10.828125 1.476562 -11.617188 2.21875 -12.203125 C 2.96875 -12.796875 3.957031 -13.09375 5.1875 -13.09375 C 6.46875 -13.09375 7.648438 -12.859375 8.734375 -12.390625 L 8.265625 -11.078125 C 7.203125 -11.523438 6.164062 -11.75 5.15625 -11.75 C 4.363281 -11.75 3.742188 -11.578125 3.296875 -11.234375 C 2.847656 -10.890625 2.625 -10.414062 2.625 -9.8125 C 2.625 -9.363281 2.703125 -8.992188 2.859375 -8.703125 C 3.023438 -8.421875 3.304688 -8.160156 3.703125 -7.921875 C 4.097656 -7.691406 4.695312 -7.429688 5.5 -7.140625 C 6.851562 -6.660156 7.785156 -6.144531 8.296875 -5.59375 C 8.804688 -5.039062 9.0625 -4.320312 9.0625 -3.4375 Z M 9.0625 -3.4375 "/></g></g></g><g fill="#ffffff" fill-opacity="1"><g transform="translate(200.514498, 355.154507)"><g><path d="M 5.75 0 L 4.25 0 L 4.25 -11.578125 L 0.15625 -11.578125 L 0.15625 -12.90625 L 9.828125 -12.90625 L 9.828125 -11.578125 L 5.75 -11.578125 Z M 5.75 0 "/></g></g></g><g fill="#ffffff" fill-opacity="1"><g transform="translate(219.736907, 355.154507)"><g><path d="M 1.78125 0 L 1.78125 -12.90625 L 3.28125 -12.90625 L 3.28125 0 Z M 1.78125 0 "/></g></g></g><g fill="#ffffff" fill-opacity="1"><g transform="translate(233.999078, 355.154507)"><g><path d="M 11.859375 0 L 10.140625 0 L 3.09375 -10.828125 L 3.015625 -10.828125 C 3.109375 -9.554688 3.15625 -8.390625 3.15625 -7.328125 L 3.15625 0 L 1.78125 0 L 1.78125 -12.90625 L 3.46875 -12.90625 L 10.5 -2.125 L 10.578125 -2.125 C 10.566406 -2.28125 10.539062 -2.785156 10.5 -3.640625 C 10.457031 -4.503906 10.441406 -5.125 10.453125 -5.5 L 10.453125 -12.90625 L 11.859375 -12.90625 Z M 11.859375 0 "/></g></g></g><g fill="#ffffff" fill-opacity="1"><g transform="translate(256.848983, 355.154507)"><g><path d="M 7.453125 -6.765625 L 11.84375 -6.765625 L 11.84375 -0.484375 C 11.15625 -0.265625 10.457031 -0.101562 9.75 0 C 9.039062 0.113281 8.222656 0.171875 7.296875 0.171875 C 5.347656 0.171875 3.828125 -0.40625 2.734375 -1.5625 C 1.648438 -2.726562 1.109375 -4.359375 1.109375 -6.453125 C 1.109375 -7.796875 1.375 -8.972656 1.90625 -9.984375 C 2.445312 -10.992188 3.222656 -11.765625 4.234375 -12.296875 C 5.242188 -12.828125 6.429688 -13.09375 7.796875 -13.09375 C 9.171875 -13.09375 10.453125 -12.835938 11.640625 -12.328125 L 11.0625 -11 C 9.894531 -11.5 8.773438 -11.75 7.703125 -11.75 C 6.128906 -11.75 4.898438 -11.28125 4.015625 -10.34375 C 3.128906 -9.40625 2.6875 -8.109375 2.6875 -6.453125 C 2.6875 -4.710938 3.113281 -3.390625 3.96875 -2.484375 C 4.820312 -1.585938 6.070312 -1.140625 7.71875 -1.140625 C 8.613281 -1.140625 9.488281 -1.242188 10.34375 -1.453125 L 10.34375 -5.421875 L 7.453125 -5.421875 Z M 7.453125 -6.765625 "/></g></g></g><g fill="#ffffff" fill-opacity="1"><g transform="translate(0.362027, 313.670082)"><g><path d="M 33.28125 -14.9375 L 39.296875 0 L 47.703125 0 L 32.359375 -38.21875 L 17.125 -38.21875 L 1.78125 0 L 10.1875 0 L 16.203125 -14.9375 Z M 19.578125 -23.390625 L 24.40625 -35.421875 L 25.078125 -35.421875 L 29.921875 -23.390625 Z M 19.578125 -23.390625 "/></g></g></g><g fill="#ffffff" fill-opacity="1"><g transform="translate(49.85645, 313.670082)"><g><path d="M 11.984375 -38.21875 L 3.5625 -38.21875 L 3.5625 0 L 38.328125 0 L 38.328125 -8.40625 L 11.984375 -8.40625 Z M 11.984375 -38.21875 "/></g></g></g><g fill="#ffffff" fill-opacity="1"><g transform="translate(89.971916, 313.670082)"><g><path d="M 33.484375 -37.3125 C 32.054688 -37.914062 30.546875 -38.21875 28.953125 -38.21875 L 3.5625 -38.21875 L 3.5625 0 L 11.921875 0 L 11.921875 -14.984375 L 28.953125 -14.984375 C 30.546875 -14.984375 32.046875 -15.285156 33.453125 -15.890625 C 34.867188 -16.503906 36.101562 -17.335938 37.15625 -18.390625 C 38.207031 -19.453125 39.039062 -20.6875 39.65625 -22.09375 C 40.269531 -23.5 40.578125 -25.003906 40.578125 -26.609375 C 40.578125 -28.203125 40.269531 -29.703125 39.65625 -31.109375 C 39.039062 -32.523438 38.207031 -33.757812 37.15625 -34.8125 C 36.101562 -35.863281 34.878906 -36.695312 33.484375 -37.3125 Z M 32.3125 -29.921875 L 32.3125 -23.234375 L 11.921875 -23.234375 L 11.921875 -29.921875 Z M 32.3125 -29.921875 "/></g></g></g><g fill="#ffffff" fill-opacity="1"><g transform="translate(133.094766, 313.670082)"><g><path d="M 34.859375 -15.03125 L 34.859375 -0.109375 L 43.21875 -0.109375 L 43.21875 -38.28125 L 34.859375 -38.28125 L 34.859375 -23.453125 L 11.984375 -23.453125 L 11.984375 -38.28125 L 3.5625 -38.28125 L 3.5625 0 L 11.984375 0 L 11.984375 -15.03125 Z M 34.859375 -15.03125 "/></g></g></g><g fill="#ffffff" fill-opacity="1"><g transform="translate(179.887651, 313.670082)"><g><path d="M 33.28125 -14.9375 L 39.296875 0 L 47.703125 0 L 32.359375 -38.21875 L 17.125 -38.21875 L 1.78125 0 L 10.1875 0 L 16.203125 -14.9375 Z M 19.578125 -23.390625 L 24.40625 -35.421875 L 25.078125 -35.421875 L 29.921875 -23.390625 Z M 19.578125 -23.390625 "/></g></g></g><g fill="#ffffff" fill-opacity="1"><g transform="translate(229.382075, 313.670082)"><g><path d="M 13.453125 -1.53125 C 15.765625 -0.507812 18.242188 0 20.890625 0 C 24.191406 0 27.207031 -0.742188 29.9375 -2.234375 C 32.675781 -3.734375 34.910156 -5.738281 36.640625 -8.25 L 10.046875 -8.25 L 10.046875 -29.96875 L 36.640625 -29.96875 C 34.910156 -32.476562 32.675781 -34.476562 29.9375 -35.96875 C 27.207031 -37.46875 24.191406 -38.21875 20.890625 -38.21875 C 18.242188 -38.21875 15.765625 -37.71875 13.453125 -36.71875 C 11.140625 -35.71875 9.117188 -34.347656 7.390625 -32.609375 C 5.660156 -30.878906 4.289062 -28.859375 3.28125 -26.546875 C 2.28125 -24.242188 1.78125 -21.765625 1.78125 -19.109375 C 1.78125 -16.460938 2.28125 -13.984375 3.28125 -11.671875 C 4.289062 -9.359375 5.660156 -7.332031 7.390625 -5.59375 C 9.117188 -3.863281 11.140625 -2.507812 13.453125 -1.53125 Z M 13.453125 -1.53125 "/></g></g></g><g fill="#ffffff" fill-opacity="1"><g transform="translate(267.815445, 313.670082)"><g><path d="M 3.5625 -38.21875 L 3.5625 0 L 11.921875 0 L 11.921875 -38.21875 Z M 3.5625 -38.21875 "/></g></g></g><g fill="#ffffff" fill-opacity="1"><g transform="translate(283.311131, 313.670082)"><g><path d="M 33.28125 -14.9375 L 39.296875 0 L 47.703125 0 L 32.359375 -38.21875 L 17.125 -38.21875 L 1.78125 0 L 10.1875 0 L 16.203125 -14.9375 Z M 19.578125 -23.390625 L 24.40625 -35.421875 L 25.078125 -35.421875 L 29.921875 -23.390625 Z M 19.578125 -23.390625 "/></g></g></g><g fill="#ffffff" fill-opacity="1"><g transform="translate(332.805554, 313.670082)"><g><path d="M 7.390625 -13.40625 C 9.117188 -11.675781 11.140625 -10.304688 13.453125 -9.296875 C 15.765625 -8.296875 18.242188 -7.796875 20.890625 -7.796875 C 23.546875 -7.796875 26.023438 -8.296875 28.328125 -9.296875 C 30.640625 -10.304688 32.660156 -11.675781 34.390625 -13.40625 C 36.128906 -15.132812 37.5 -17.15625 38.5 -19.46875 C 39.507812 -21.78125 40.015625 -24.257812 40.015625 -26.90625 C 40.015625 -29.5625 39.507812 -32.039062 38.5 -34.34375 C 37.5 -36.65625 36.128906 -38.675781 34.390625 -40.40625 C 32.660156 -42.144531 30.640625 -43.515625 28.328125 -44.515625 C 26.023438 -45.523438 23.546875 -46.03125 20.890625 -46.03125 C 18.242188 -46.03125 15.765625 -45.523438 13.453125 -44.515625 C 11.140625 -43.515625 9.117188 -42.144531 7.390625 -40.40625 C 5.660156 -38.675781 4.289062 -36.65625 3.28125 -34.34375 C 2.28125 -32.039062 1.78125 -29.5625 1.78125 -26.90625 C 1.78125 -24.257812 2.28125 -21.78125 3.28125 -19.46875 C 4.289062 -17.15625 5.660156 -15.132812 7.390625 -13.40625 Z M 7.84375 -21.40625 C 7.101562 -23.132812 6.734375 -24.96875 6.734375 -26.90625 C 6.734375 -28.84375 7.101562 -30.675781 7.84375 -32.40625 C 8.59375 -34.144531 9.601562 -35.648438 10.875 -36.921875 C 12.15625 -38.203125 13.660156 -39.210938 15.390625 -39.953125 C 17.117188 -40.703125 18.953125 -41.078125 20.890625 -41.078125 C 22.828125 -41.078125 24.660156 -40.703125 26.390625 -39.953125 C 28.128906 -39.210938 29.632812 -38.203125 30.90625 -36.921875 C 32.1875 -35.648438 33.195312 -34.144531 33.9375 -32.40625 C 34.6875 -30.675781 35.0625 -28.84375 35.0625 -26.90625 C 35.0625 -24.96875 34.6875 -23.132812 33.9375 -21.40625 C 33.195312 -19.675781 32.1875 -18.171875 30.90625 -16.890625 C 29.632812 -15.617188 28.128906 -14.609375 26.390625 -13.859375 C 24.660156 -13.109375 22.828125 -12.734375 20.890625 -12.734375 C 18.953125 -12.734375 17.117188 -13.109375 15.390625 -13.859375 C 13.660156 -14.609375 12.15625 -15.617188 10.875 -16.890625 C 9.601562 -18.171875 8.59375 -19.675781 7.84375 -21.40625 Z M 17.484375 -24.921875 L 19.578125 -24.921875 C 19.742188 -22.304688 20.570312 -20.445312 22.0625 -19.34375 C 23.5625 -18.238281 25.566406 -17.6875 28.078125 -17.6875 L 30.578125 -17.6875 L 30.578125 -22.625 L 28.078125 -22.625 C 27.640625 -22.625 27.207031 -22.640625 26.78125 -22.671875 C 26.351562 -22.710938 25.988281 -22.800781 25.6875 -22.9375 C 25.382812 -23.070312 25.128906 -23.300781 24.921875 -23.625 C 24.722656 -23.945312 24.601562 -24.378906 24.5625 -24.921875 L 24.765625 -24.921875 C 25.585938 -24.921875 26.34375 -25.070312 27.03125 -25.375 C 27.726562 -25.6875 28.335938 -26.101562 28.859375 -26.625 C 29.390625 -27.15625 29.804688 -27.769531 30.109375 -28.46875 C 30.421875 -29.164062 30.578125 -29.921875 30.578125 -30.734375 C 30.578125 -31.546875 30.421875 -32.300781 30.109375 -33 C 29.804688 -33.695312 29.390625 -34.304688 28.859375 -34.828125 C 28.335938 -35.359375 27.726562 -35.773438 27.03125 -36.078125 C 26.34375 -36.390625 25.585938 -36.546875 24.765625 -36.546875 L 12.53125 -36.546875 L 12.53125 -17.6875 L 17.484375 -17.6875 Z M 17.484375 -31.59375 L 24.765625 -31.59375 C 25.003906 -31.59375 25.207031 -31.507812 25.375 -31.34375 C 25.550781 -31.175781 25.640625 -30.972656 25.640625 -30.734375 C 25.640625 -30.492188 25.550781 -30.289062 25.375 -30.125 C 25.207031 -29.957031 25.003906 -29.875 24.765625 -29.875 L 17.484375 -29.875 Z M 17.484375 -31.59375 "/></g></g></g></svg>